# xmcd
#
# Track frame offsets: 
#        150
#        26712
#        46064
#        72520
#        100328
#        120270
#        142349
#        167407
#        201838
#        223799
#        264391
#        283506
#        308589
#        333475
#
# Disc length: 4677 seconds
#
# Revision: 1
# Processed by: cddbd v1.5.2PL0 Copyright (c) Steve Scherf et al.
# Submitted via: ExactAudioCopy v1.0b3
#
DISCID=cf12430e
DTITLE=Various Artist - Time Blues  vol.25
DYEAR=2008
DGENRE=Blues
TTITLE0=Mark May - Gangstas Blues
TTITLE1=Black Oak, Arkansas - Dark Purple Blues
TTITLE2=Melvin Allen - Dr. Feelgood
TTITLE3=Mighty Mo Rogers - Black Pairs Blues
TTITLE4=Chris Farlowe - The Thrill has gone
TTITLE5=Gregor Hilden - Blue Hour
TTITLE6=Fernando Noronha and Black Soul - White Trash
TTITLE7=Jimmy Dawkins - Hard Life Blues
TTITLE8=The Pauldelay Band - What went wrong
TTITLE9=Chris Bell and the 100 Percent Blues - Elevator to Heaven
TTITLE10=WoodlegOdds - You Came right on time
TTITLE11=Hns Blues and Boogie - Oh that woman
TTITLE12=Dr Blues and The Hip Replacements - In Prison
TTITLE13=Jools Holland and Jimmy Scott - Ill be seeing You
EXTD=YEAR: 2008
EXTT0=
EXTT1=
EXTT2=
EXTT3=
EXTT4=
EXTT5=
EXTT6=
EXTT7=
EXTT8=
EXTT9=
EXTT10=
EXTT11=
EXTT12=
EXTT13=
PLAYORDER=
